<?xml version="1.0" standalone="no"?>
<!DOCTYPE svg PUBLIC "-//W3C//DTD SVG 20010904//EN"
 "http://www.w3.org/TR/2001/REC-SVG-20010904/DTD/svg10.dtd">
<svg version="1.0" xmlns="http://www.w3.org/2000/svg"
 width="100.000000pt" height="100.000000pt" viewBox="0 0 100.000000 100.000000"
 preserveAspectRatio="xMidYMid meet">

<g transform="translate(0.000000,100.000000) scale(0.100000,-0.100000)"
fill="#000000" stroke="none">
<path d="M430 876 c-19 -13 -55 -27 -80 -31 -57 -10 -95 -47 -103 -102 -4 -23
-18 -59 -32 -79 -32 -47 -32 -90 0 -136 47 -69 44 -84 -28 -196 l-66 -101 76
-3 75 -3 26 -62 c14 -35 28 -63 31 -63 3 0 33 42 67 93 l61 92 43 0 43 0 61
-92 c34 -51 64 -93 67 -93 3 0 17 28 31 63 l26 62 75 3 76 3 -65 100 c-72 111
-75 128 -28 196 31 46 30 91 -1 137 -14 21 -30 60 -36 87 -13 58 -41 84 -102
94 -23 4 -58 18 -77 31 -45 31 -95 31 -140 0z m119 -60 c17 -13 52 -27 76 -31
48 -7 65 -25 65 -68 0 -13 13 -44 30 -68 16 -24 30 -49 30 -55 0 -5 -11 -25
-25 -44 -14 -18 -27 -50 -31 -69 -11 -68 -13 -70 -62 -77 -28 -4 -65 -19 -90
-37 l-42 -31 -45 32 c-28 20 -58 32 -78 32 -46 0 -56 10 -66 63 -5 26 -20 64
-35 85 -14 21 -26 42 -26 48 0 5 14 29 30 53 18 26 30 57 30 76 0 40 14 52 68
61 23 3 56 17 74 30 40 30 56 30 97 0z m-195 -475 c22 -3 41 -10 43 -16 1 -5
-11 -30 -27 -55 l-30 -45 -12 33 c-11 28 -17 32 -50 32 -21 0 -38 3 -38 6 0 3
10 19 21 36 15 20 26 27 38 22 9 -4 34 -10 55 -13z m385 -10 c12 -16 21 -32
21 -35 0 -3 -17 -6 -38 -6 -33 0 -39 -4 -50 -32 l-12 -33 -30 45 c-16 25 -28
49 -27 55 3 7 61 25 109 34 4 0 16 -12 27 -28z"/>
</g>
</svg>
