<?xml version="1.0" standalone="no"?>
<!DOCTYPE svg PUBLIC "-//W3C//DTD SVG 20010904//EN"
 "http://www.w3.org/TR/2001/REC-SVG-20010904/DTD/svg10.dtd">
<svg version="1.0" xmlns="http://www.w3.org/2000/svg"
 width="100.000000pt" height="100.000000pt" viewBox="0 0 100.000000 100.000000"
 preserveAspectRatio="xMidYMid meet">

<g transform="translate(0.000000,100.000000) scale(0.100000,-0.100000)"
fill="#000000" stroke="none">
<path d="M389 887 c-95 -35 -175 -114 -209 -203 -16 -43 -20 -79 -20 -168 0
-114 0 -114 29 -138 18 -16 34 -44 45 -81 21 -73 97 -158 164 -184 60 -23 144
-23 204 0 67 26 143 111 164 184 10 36 27 65 48 83 l31 28 -1 109 c-1 84 -7
121 -23 165 -27 71 -93 145 -163 183 -45 25 -66 30 -143 32 -58 2 -103 -2
-126 -10z m221 -68 c95 -43 158 -130 167 -231 l6 -58 -32 0 c-28 0 -31 -3 -31
-30 0 -23 5 -30 19 -30 24 0 45 -25 38 -45 -4 -8 -17 -17 -30 -20 -20 -6 -26
-15 -31 -53 -9 -64 -43 -120 -94 -157 -40 -27 -51 -30 -122 -30 -71 0 -82 3
-122 30 -51 37 -85 93 -94 157 -5 38 -11 47 -31 53 -13 3 -26 12 -30 20 -7 20
14 45 38 45 15 0 19 8 19 40 0 52 19 60 138 60 132 1 192 36 203 120 4 22 0
25 -28 28 -29 3 -33 0 -33 -21 0 -47 -30 -60 -158 -67 -118 -6 -152 -15 -172
-48 -9 -13 -10 -8 -5 26 17 131 137 232 275 232 44 0 80 -7 110 -21z"/>
<path d="M381 452 c-12 -22 3 -42 30 -42 22 0 33 28 18 46 -16 19 -36 17 -48
-4z"/>
<path d="M571 457 c-17 -21 -3 -49 23 -45 15 2 21 10 21 28 0 28 -26 38 -44
17z"/>
</g>
</svg>
