<?xml version="1.0" standalone="no"?>
<!DOCTYPE svg PUBLIC "-//W3C//DTD SVG 20010904//EN"
 "http://www.w3.org/TR/2001/REC-SVG-20010904/DTD/svg10.dtd">
<svg version="1.0" xmlns="http://www.w3.org/2000/svg"
 width="100.000000pt" height="100.000000pt" viewBox="0 0 100.000000 100.000000"
 preserveAspectRatio="xMidYMid meet">

<g transform="translate(0.000000,100.000000) scale(0.100000,-0.100000)"
fill="#000000" stroke="none">
<path d="M421 875 c-16 -14 -33 -35 -36 -45 -6 -19 -16 -20 -151 -20 l-144 0
0 -310 0 -310 410 0 410 0 0 310 0 310 -144 0 c-135 0 -145 1 -151 20 -12 39
-63 70 -115 70 -37 0 -55 -6 -79 -25z m113 -41 c32 -12 15 -24 -34 -24 -27 0
-50 4 -50 9 0 18 53 27 84 15z m306 -224 l0 -140 -340 0 -340 0 0 140 0 140
340 0 340 0 0 -140z m0 -285 l0 -75 -340 0 -340 0 0 75 0 75 340 0 340 0 0
-75z"/>
<path d="M474 546 c-10 -26 4 -48 28 -44 33 4 33 52 0 56 -13 2 -25 -3 -28
-12z"/>
</g>
</svg>
